<?xml version="1.0" encoding="UTF-8"?>
<svg xmlns="http://www.w3.org/2000/svg" xmlns:xlink="http://www.w3.org/1999/xlink" width="200px" height="40px" viewBox="0 0 201 40" version="1.1">
<g id="surface1" >
<path style="fill:none;stroke-width:2;stroke-linecap:square;stroke-linejoin:miter;stroke:rgb(36.078431%,40.784314%,83.921569%);stroke-opacity:1;stroke-miterlimit:4;" d="M 50.000875 0.664062 L 50.000875 99.335938 " transform="matrix(0.399602,0,0,0.4,0,0)"/>
<path style="fill:none;stroke-width:2;stroke-linecap:square;stroke-linejoin:miter;stroke:rgb(36.078431%,83.921569%,55.294118%);stroke-opacity:1;stroke-miterlimit:4;" d="M 50.000881 19.305205 L 50.000632 80.693921 " transform="matrix(0.346066,0.2,-0.199801,0.34641,12.666888,-7.320508)"/>
<path style="fill:none;stroke-width:2;stroke-linecap:square;stroke-linejoin:miter;stroke:rgb(83.921569%,79.215686%,36.078431%);stroke-opacity:1;stroke-miterlimit:4;" d="M 50.002896 9.447458 L 49.998228 90.551203 " transform="matrix(0.256859,0.306418,-0.306113,0.257115,22.442806,-8.176641)"/>
<path style="fill:none;stroke-width:2;stroke-linecap:square;stroke-linejoin:miter;stroke:rgb(83.921569%,79.215686%,36.078431%);stroke-opacity:1;stroke-miterlimit:4;" d="M 49.995443 20.242267 L 50.005429 79.756221 " transform="matrix(0.199801,0.34641,-0.346066,0.2,27.293351,-7.320508)"/>
<path style="fill:none;stroke-width:2;stroke-linecap:square;stroke-linejoin:miter;stroke:rgb(83.921569%,79.215686%,36.078431%);stroke-opacity:1;stroke-miterlimit:4;" d="M 50.001785 12.248318 L 49.998807 87.750043 " transform="matrix(0.136672,0.375877,-0.375503,0.136808,31.921688,-5.634254)"/>
<path style="fill:none;stroke-width:2;stroke-linecap:square;stroke-linejoin:miter;stroke:rgb(36.078431%,40.784314%,83.921569%);stroke-opacity:1;stroke-miterlimit:4;" d="M 49.997257 33.819016 L 50.003047 66.179261 " transform="matrix(0.0693902,0.393923,-0.393532,0.0694593,36.187184,-3.169119)"/>
<path style="fill:none;stroke-width:2;stroke-linecap:square;stroke-linejoin:miter;stroke:rgb(36.078431%,83.921569%,55.294118%);stroke-opacity:1;stroke-miterlimit:4;" d="M 50 39.216923 L 50 60.781328 " transform="matrix(0.000000000000000024,0.4,-0.399602,0.000000000000000024,39.960239,0)"/>
<path style="fill:none;stroke-width:2;stroke-linecap:square;stroke-linejoin:miter;stroke:rgb(36.078431%,83.921569%,55.294118%);stroke-opacity:1;stroke-miterlimit:4;" d="M 50.000752 24.359755 L 49.99894 75.638527 " transform="matrix(-0.0693902,0.393923,-0.393532,-0.0694593,43.126208,3.776809)"/>
<path style="fill:none;stroke-width:2;stroke-linecap:square;stroke-linejoin:miter;stroke:rgb(36.078431%,83.921569%,55.294118%);stroke-opacity:1;stroke-miterlimit:4;" d="M 49.998343 44.040098 L 50.000783 55.958387 " transform="matrix(-0.199801,0.34641,-0.346066,-0.2,47.27347,12.679492)"/>
<path style="fill:none;stroke-width:2;stroke-linecap:square;stroke-linejoin:miter;stroke:rgb(83.921569%,79.215686%,36.078431%);stroke-opacity:1;stroke-miterlimit:4;" d="M 49.999633 5.910593 L 50.005526 94.095556 " transform="matrix(-0.256859,0.306418,-0.306113,-0.257115,48.128752,17.534863)"/>
<path style="fill:none;stroke-width:2;stroke-linecap:square;stroke-linejoin:miter;stroke:rgb(36.078431%,83.921569%,55.294118%);stroke-opacity:1;stroke-miterlimit:4;" d="M 50.001177 26.531707 L 49.99748 73.467175 " transform="matrix(-0.306113,0.257115,-0.256859,-0.306418,48.128752,22.465138)"/>
<path style="fill:none;stroke-width:2;stroke-linecap:square;stroke-linejoin:miter;stroke:rgb(83.921569%,79.215686%,36.078431%);stroke-opacity:1;stroke-miterlimit:4;" d="M 50.003126 26.141005 L 50.003823 73.863016 " transform="matrix(-0.346066,0.2,-0.199801,-0.34641,47.27347,27.320509)"/>
<path style="fill:none;stroke-width:2;stroke-linecap:square;stroke-linejoin:miter;stroke:rgb(83.921569%,79.215686%,36.078431%);stroke-opacity:1;stroke-miterlimit:4;" d="M 49.995694 38.87318 L 50.002583 61.126517 " transform="matrix(-0.393532,0.0694593,-0.0693902,-0.393923,43.126207,36.223192)"/>
<path style="fill:none;stroke-width:2;stroke-linecap:square;stroke-linejoin:miter;stroke:rgb(36.078431%,83.921569%,55.294118%);stroke-opacity:1;stroke-miterlimit:4;" d="M 49.999125 18.662106 L 49.999125 81.337887 " transform="matrix(-0.399602,0.000000000000000049,-0.000000000000000049,-0.4,39.960239,39.999998)"/>
<path style="fill:none;stroke-width:2;stroke-linecap:square;stroke-linejoin:miter;stroke:rgb(36.078431%,40.784314%,83.921569%);stroke-opacity:1;stroke-miterlimit:4;" d="M 49.995358 9.165596 L 50.002919 90.834708 " transform="matrix(-0.393532,-0.0694593,0.0693902,-0.393923,36.187184,43.169119)"/>
<path style="fill:none;stroke-width:2;stroke-linecap:square;stroke-linejoin:miter;stroke:rgb(83.921569%,79.215686%,36.078431%);stroke-opacity:1;stroke-miterlimit:4;" d="M 50.002905 0.479334 L 50.004635 99.517906 " transform="matrix(-0.375503,-0.136808,0.136672,-0.375877,31.921687,45.634252)"/>
<path style="fill:none;stroke-width:2;stroke-linecap:square;stroke-linejoin:miter;stroke:rgb(83.921569%,79.215686%,36.078431%);stroke-opacity:1;stroke-miterlimit:4;" d="M 50.00249 11.026905 L 49.996166 88.974206 " transform="matrix(-0.306113,-0.257115,0.256859,-0.306418,22.442806,48.176638)"/>
<path style="fill:none;stroke-width:2;stroke-linecap:square;stroke-linejoin:miter;stroke:rgb(36.078431%,40.784314%,83.921569%);stroke-opacity:1;stroke-miterlimit:4;" d="M 50.001129 8.474608 L 49.997997 91.526907 " transform="matrix(-0.199801,-0.34641,0.346066,-0.2,12.666888,47.320508)"/>
<path style="fill:none;stroke-width:2;stroke-linecap:square;stroke-linejoin:miter;stroke:rgb(83.921569%,79.215686%,36.078431%);stroke-opacity:1;stroke-miterlimit:4;" d="M 49.998964 18.594799 L 50.000441 81.40685 " transform="matrix(-0.136672,-0.375877,0.375503,-0.136808,8.038551,45.634256)"/>
<path style="fill:none;stroke-width:2;stroke-linecap:square;stroke-linejoin:miter;stroke:rgb(83.921569%,79.215686%,36.078431%);stroke-opacity:1;stroke-miterlimit:4;" d="M 50.000004 2.443839 L 50.000004 97.557917 " transform="matrix(-0.000000000000000073,-0.4,0.399602,-0.000000000000000073,-0.00000152436,40.000002)"/>
<path style="fill:none;stroke-width:2;stroke-linecap:square;stroke-linejoin:miter;stroke:rgb(36.078431%,40.784314%,83.921569%);stroke-opacity:1;stroke-miterlimit:4;" d="M 50.003681 17.571535 L 49.99663 82.430193 " transform="matrix(0.0693902,-0.393923,0.393532,0.0694593,-3.16597,36.223193)"/>
<path style="fill:none;stroke-width:2;stroke-linecap:square;stroke-linejoin:miter;stroke:rgb(36.078431%,40.784314%,83.921569%);stroke-opacity:1;stroke-miterlimit:4;" d="M 50.001904 24.099024 L 49.999819 75.90128 " transform="matrix(0.393532,-0.0694593,0.0693902,0.393923,-3.165969,3.776809)"/>
<path style="fill:none;stroke-width:2;stroke-linecap:square;stroke-linejoin:miter;stroke:rgb(83.921569%,79.215686%,36.078431%);stroke-opacity:1;stroke-miterlimit:4;" d="M 50.000809 16.702581 L 50.000835 83.296821 " transform="matrix(0.375503,0.136808,-0.136672,0.375877,8.038552,-5.634255)"/>
<path style="fill:none;stroke-width:2;stroke-linecap:square;stroke-linejoin:miter;stroke:rgb(83.921569%,79.215686%,36.078431%);stroke-opacity:1;stroke-miterlimit:4;" d="M 49.999993 36.254106 L 50.001523 63.745019 " transform="matrix(0.346066,0.2,-0.199801,0.34641,12.666888,-7.320508)"/>
<path style="fill:none;stroke-width:2;stroke-linecap:square;stroke-linejoin:miter;stroke:rgb(36.078431%,40.784314%,83.921569%);stroke-opacity:1;stroke-miterlimit:4;" d="M 50.000547 43.064565 L 50.000793 56.934311 " transform="matrix(0.306113,0.257115,-0.256859,0.306418,17.517433,-8.176641)"/>
<path style="fill:none;stroke-width:2;stroke-linecap:square;stroke-linejoin:miter;stroke:rgb(36.078431%,40.784314%,83.921569%);stroke-opacity:1;stroke-miterlimit:4;" d="M 49.994093 13.970156 L 50.000748 86.035993 " transform="matrix(0.256859,0.306418,-0.306113,0.257115,22.442806,-8.176641)"/>
<path style="fill:none;stroke-width:2;stroke-linecap:square;stroke-linejoin:miter;stroke:rgb(36.078431%,83.921569%,55.294118%);stroke-opacity:1;stroke-miterlimit:4;" d="M 50.000867 0.01803 L 50.000008 99.980455 " transform="matrix(0.199801,0.34641,-0.346066,0.2,27.293351,-7.320508)"/>
<path style="fill:none;stroke-width:2;stroke-linecap:square;stroke-linejoin:miter;stroke:rgb(36.078431%,40.784314%,83.921569%);stroke-opacity:1;stroke-miterlimit:4;" d="M 50.004197 10.553362 L 49.996106 89.444915 " transform="matrix(0.0693902,0.393923,-0.393532,0.0694593,36.187184,-3.169119)"/>
<path d="M 52.746094 28.140625 L 66.140625 28.140625 L 66.140625 24.492188 L 57.171875 24.492188 L 57.171875 7.195312 L 52.746094 7.195312 Z M 52.746094 28.140625 "/>
<path d="M 75.21875 28.449219 C 79.980469 28.449219 82.941406 25.1875 82.941406 20.347656 C 82.941406 15.480469 79.980469 12.226562 75.21875 12.226562 C 70.457031 12.226562 67.492188 15.480469 67.492188 20.347656 C 67.492188 25.1875 70.457031 28.449219 75.21875 28.449219 Z M 75.238281 25.074219 C 73.042969 25.074219 71.917969 23.058594 71.917969 20.316406 C 71.917969 17.578125 73.042969 15.550781 75.238281 15.550781 C 77.394531 15.550781 78.519531 17.578125 78.519531 20.316406 C 78.519531 23.058594 77.394531 25.074219 75.238281 25.074219 Z M 75.238281 25.074219 "/>
<path d="M 91.980469 34.359375 C 96.464844 34.359375 99.652344 32.316406 99.652344 28.296875 L 99.652344 12.433594 L 95.332031 12.433594 L 95.332031 15.070312 L 95.167969 15.070312 C 94.585938 13.792969 93.308594 12.226562 90.679688 12.226562 C 87.238281 12.226562 84.328125 14.90625 84.328125 20.257812 C 84.328125 25.484375 87.15625 27.917969 90.691406 27.917969 C 93.195312 27.917969 94.59375 26.660156 95.167969 25.359375 L 95.351562 25.359375 L 95.351562 28.234375 C 95.351562 30.390625 93.972656 31.230469 92.082031 31.230469 C 90.160156 31.230469 89.191406 30.390625 88.832031 29.441406 L 84.808594 29.984375 C 85.328125 32.457031 87.75 34.359375 91.980469 34.359375 Z M 92.070312 24.644531 C 89.9375 24.644531 88.769531 22.945312 88.769531 20.238281 C 88.769531 17.566406 89.914062 15.695312 92.070312 15.695312 C 94.1875 15.695312 95.371094 17.484375 95.371094 20.238281 C 95.371094 23.007812 94.164062 24.644531 92.070312 24.644531 Z M 92.070312 24.644531 "/>
<path d="M 109.34375 28.449219 C 114.105469 28.449219 117.066406 25.1875 117.066406 20.347656 C 117.066406 15.480469 114.105469 12.226562 109.34375 12.226562 C 104.582031 12.226562 101.621094 15.480469 101.621094 20.347656 C 101.621094 25.1875 104.582031 28.449219 109.34375 28.449219 Z M 109.363281 25.074219 C 107.167969 25.074219 106.042969 23.058594 106.042969 20.316406 C 106.042969 17.578125 107.167969 15.550781 109.363281 15.550781 C 111.519531 15.550781 112.644531 17.578125 112.644531 20.316406 C 112.644531 23.058594 111.519531 25.074219 109.363281 25.074219 Z M 109.363281 25.074219 "/>
<path d="M 119.035156 28.140625 L 123.386719 28.140625 L 123.386719 12.433594 L 119.035156 12.433594 Z M 121.222656 10.40625 C 122.519531 10.40625 123.582031 9.414062 123.582031 8.199219 C 123.582031 6.992188 122.519531 6 121.222656 6 C 119.933594 6 118.871094 6.992188 118.871094 8.199219 C 118.871094 9.414062 119.933594 10.40625 121.222656 10.40625 Z M 121.222656 10.40625 "/>
<path d="M 126.011719 34.03125 L 130.363281 34.03125 L 130.363281 25.625 L 130.496094 25.625 C 131.097656 26.933594 132.417969 28.398438 134.949219 28.398438 C 138.527344 28.398438 141.316406 25.566406 141.316406 20.308594 C 141.316406 14.90625 138.402344 12.226562 134.960938 12.226562 C 132.335938 12.226562 131.078125 13.792969 130.496094 15.070312 L 130.300781 15.070312 L 130.300781 12.433594 L 126.011719 12.433594 Z M 130.269531 20.289062 C 130.269531 17.484375 131.457031 15.695312 133.570312 15.695312 C 135.726562 15.695312 136.871094 17.566406 136.871094 20.289062 C 136.871094 23.027344 135.707031 24.929688 133.570312 24.929688 C 131.476562 24.929688 130.269531 23.089844 130.269531 20.289062 Z M 130.269531 20.289062 "/>
<path d="M 156.410156 16.914062 C 156.023438 14.019531 153.695312 12.226562 149.730469 12.226562 C 145.714844 12.226562 143.066406 14.089844 143.078125 17.117188 C 143.066406 19.46875 144.550781 20.992188 147.613281 21.605469 L 150.332031 22.148438 C 151.703125 22.425781 152.324219 22.925781 152.34375 23.714844 C 152.324219 24.644531 151.3125 25.308594 149.789062 25.308594 C 148.238281 25.308594 147.207031 24.644531 146.941406 23.367188 L 142.660156 23.589844 C 143.066406 26.597656 145.621094 28.449219 149.78125 28.449219 C 153.847656 28.449219 156.757812 26.371094 156.769531 23.273438 C 156.757812 21.003906 155.277344 19.644531 152.234375 19.019531 L 149.390625 18.445312 C 147.929688 18.128906 147.390625 17.628906 147.398438 16.871094 C 147.390625 15.929688 148.453125 15.316406 149.800781 15.316406 C 151.3125 15.316406 152.210938 16.144531 152.425781 17.15625 Z M 156.410156 16.914062 "/>
<path d="M 168.710938 21.453125 C 168.722656 23.558594 167.28125 24.664062 165.71875 24.664062 C 164.070312 24.664062 163.007812 23.507812 163 21.65625 L 163 12.433594 L 158.648438 12.433594 L 158.648438 22.433594 C 158.65625 26.105469 160.800781 28.347656 163.960938 28.347656 C 166.320312 28.347656 168.015625 27.128906 168.722656 25.289062 L 168.882812 25.289062 L 168.882812 28.140625 L 173.0625 28.140625 L 173.0625 12.433594 L 168.710938 12.433594 Z M 168.710938 21.453125 "/>
<path d="M 175.679688 28.140625 L 180.035156 28.140625 L 180.035156 18.710938 C 180.035156 16.972656 181.136719 15.816406 182.589844 15.816406 C 184.019531 15.816406 184.980469 16.800781 184.980469 18.34375 L 184.980469 28.140625 L 189.199219 28.140625 L 189.199219 18.550781 C 189.199219 16.921875 190.128906 15.816406 191.710938 15.816406 C 193.101562 15.816406 194.144531 16.6875 194.144531 18.4375 L 194.144531 28.140625 L 198.484375 28.140625 L 198.484375 17.578125 C 198.484375 14.171875 196.464844 12.226562 193.542969 12.226562 C 191.242188 12.226562 189.453125 13.40625 188.808594 15.203125 L 188.648438 15.203125 C 188.144531 13.382812 186.542969 12.226562 184.386719 12.226562 C 182.269531 12.226562 180.667969 13.351562 180.011719 15.203125 L 179.828125 15.203125 L 179.828125 12.433594 L 175.679688 12.433594 Z M 175.679688 28.140625 "/>
</g>
</svg>
